<svg width="559" height="40" viewBox="0 0 559 40" fill="none" xmlns="http://www.w3.org/2000/svg">
    <path d="M5 1H554V-1H5V1ZM558 5V35H560V5H558ZM554 39H5.00002V41H554V39ZM1 35V5H-1V35H1ZM5.00002 39C2.79087 39 1 37.2091 1 35H-1C-1 38.3137 1.68631 41 5.00002 41V39ZM558 35C558 37.2091 556.209 39 554 39V41C557.314 41 560 38.3137 560 35H558ZM554 1C556.209 1 558 2.79087 558 5H560C560 1.68629 557.314 -1 554 -1V1ZM5 -1C1.68629 -1 -1 1.68629 -1 5H1C1 2.79086 2.79086 1 5 1V-1Z" fill="url(#paint0_linear)"/>
    <defs>
        <linearGradient id="paint0_linear" x1="279.5" y1="0" x2="279.5" y2="40" gradientUnits="userSpaceOnUse">
            <stop stop-color="#A26E12"/>
            <stop offset="1" stop-color="#E3B65C"/>
        </linearGradient>
    </defs>
</svg>
