<svg width="555" height="45" viewBox="0 0 555 45" fill="none" xmlns="http://www.w3.org/2000/svg">
    <g clip-path="url(#clip0)">
        <path d="M555 23.5311C554.827 22.6919 554.723 21.8178 554.619 20.9437H349.675C348.844 14.7199 344.516 8.63597 335.999 8.32128C326.027 7.93667 314.393 12.2374 301.339 21.0835C297.15 17.9716 293.306 14.7199 289.982 11.6779L298.292 3.28631C298.777 2.7968 298.777 1.95764 298.292 1.46813C297.807 0.978622 296.976 0.978622 296.492 1.46813L288.112 9.92967C283.75 5.83876 280.426 2.30729 278.695 0.384217C278.21 -0.140259 277.31 -0.140259 276.825 0.384217C275.094 2.30729 271.77 5.83876 267.407 9.92967L258.993 1.5031C258.508 1.01359 257.677 1.01359 257.193 1.5031C256.708 1.99261 256.708 2.83177 257.193 3.32128L265.503 11.7129C262.179 14.7548 258.335 18.0066 254.146 21.1185C241.092 12.2723 229.424 7.93667 219.486 8.35625C210.934 8.67093 206.606 14.7199 205.809 20.9786H0.0346247C0.0692495 21.8527 0.0692495 22.6919 0 23.5311H205.671C205.809 30.4891 210.345 37.9716 219.936 38.0416C220.04 38.0416 220.144 38.0416 220.213 38.0416C230.116 38.0416 241.542 33.3912 254.215 24.2653C258.301 27.1325 262.04 30.1744 265.295 33.0066L255.6 42.7968C255.115 43.2863 255.115 44.1255 255.6 44.615C255.842 44.8597 256.188 44.9996 256.5 44.9996C256.812 44.9996 257.158 44.8597 257.4 44.615L267.199 34.7199C271.493 38.601 274.817 42.0276 276.721 44.0206L276.825 44.1255C277.067 44.3702 277.448 44.4402 277.794 44.4402C278.141 44.4402 278.521 44.2304 278.764 43.9856C280.703 41.9926 283.992 38.566 288.286 34.6849L298.084 44.58C298.327 44.8248 298.673 44.9646 298.985 44.9646C299.296 44.9646 299.643 44.8248 299.885 44.58C300.37 44.0905 300.37 43.2513 299.885 42.7618L290.19 32.9716C293.445 30.1045 297.184 27.0975 301.27 24.2304C313.908 33.3912 325.334 38.0066 335.271 38.0066C335.375 38.0066 335.479 38.0066 335.548 38.0066C345.139 37.9367 349.675 30.4541 349.814 23.4961H555V23.5311ZM220.213 35.4891C220.109 35.4891 220.04 35.4891 219.936 35.4891C211.973 35.4192 208.268 29.1954 208.164 23.3912C208.095 17.587 211.626 11.2234 219.555 10.9437C219.936 10.9437 220.317 10.9087 220.698 10.9087C229.666 10.9087 240.157 14.8947 251.93 22.7269C240.053 31.1884 229.389 35.4891 220.213 35.4891ZM287.489 31.9926C287.489 31.9926 287.455 31.9926 287.42 32.0276V32.0625C283.23 35.8038 279.872 39.1954 277.76 41.3982C275.613 39.1954 272.289 35.8038 268.099 32.0625V32.0276C268.099 32.0276 268.065 32.0276 268.03 31.9926C264.672 28.9856 260.759 25.7339 256.396 22.6569C260.828 19.3003 264.81 15.8388 268.238 12.6569H268.273C268.273 12.6569 268.273 12.6569 268.273 12.622C272.427 8.77582 275.717 5.34925 277.76 3.14645C279.803 5.34925 283.092 8.77582 287.247 12.622C287.247 12.622 287.247 12.622 287.247 12.6569H287.281C290.709 15.8388 294.726 19.3003 299.123 22.6569C294.76 25.7688 290.848 28.9856 287.489 31.9926ZM335.548 35.4891C335.445 35.4891 335.375 35.4891 335.271 35.4891C326.096 35.4891 315.431 31.1884 303.521 22.7269C315.778 14.5451 326.684 10.594 335.895 10.9087C343.858 11.2234 347.39 17.587 347.286 23.3562C347.217 29.1604 343.512 35.4192 335.548 35.4891Z" fill="#C68B43"/>
    </g>
    <defs>
        <clipPath id="clip0">
            <rect width="555" height="45" fill="white"/>
        </clipPath>
    </defs>
</svg>
