<svg width="743" height="52" viewBox="0 0 743 52" fill="none" xmlns="http://www.w3.org/2000/svg">
    <path d="M368.459 17.0903C366.513 10.0353 361.243 2.59758 352.351 2.76165C342.919 2.95306 334.865 9.29703 337.54 18.4575C339.919 26.6609 348.649 31.829 357.216 27.3719C357.649 27.1531 357.946 26.7703 358.027 26.3601C358.162 26.1687 358.27 25.9226 358.324 25.7038C360.243 22.3951 357.297 17.8559 353.189 16.1605C350.108 14.8753 345.919 14.2464 342.919 15.559C342.243 13.0706 342.621 10.1994 344.243 8.64076C344.838 8.06652 345.081 7.71104 344.973 7.16414C345.432 6.91804 345.946 6.72663 346.486 6.53522C350.054 5.35939 354.459 4.89454 357.919 6.80866C365.784 11.1838 367.27 21.6021 366.27 29.1219C365 38.7746 358.189 47.4155 347.081 49.0288C346.486 49.1109 345.919 49.1656 345.351 49.1929C345.216 49.1382 345.081 49.1109 344.892 49.0835C339.027 48.5093 332.54 46.6499 328.54 42.3841C325.189 38.8019 321.189 33.2783 323.865 28.9852C326.432 24.8562 322.648 26.5515 321.513 27.4539C318.865 29.5594 318.108 32.5127 317.865 35.5753C314.54 30.4071 310.838 24.6647 304.297 22.942C297.946 21.274 290.324 21.4381 285.081 25.321C284.378 25.8406 284.054 26.7156 284.486 27.2351C284.513 27.8367 285.324 28.2742 286.189 28.3016C293.946 28.4383 301 31.9384 307.405 35.712C314.162 39.7043 320.622 44.1888 327.73 47.6616C333.784 50.6148 340.811 52.8571 347.703 51.6813C354.432 50.5328 361.594 46.5678 365.162 41.1536C369.648 34.208 370.621 24.9655 368.459 17.0903ZM354.054 21.274C354.108 21.3287 354.162 21.356 354.189 21.4107C354.162 21.4107 354.135 21.3834 354.081 21.3834C354.081 21.3287 354.054 21.3013 354.054 21.274Z" fill="#C68B43"/>
    <path d="M374.621 40.9348C378.405 46.2123 385.703 49.8765 392.486 50.7516C399.405 51.6539 406.351 49.1382 412.27 45.9116C419.243 42.138 425.486 37.4074 432.108 33.1416C438.378 29.0946 445.27 25.321 453 24.8835C453.865 24.8288 454.676 24.3639 454.676 23.7624C455.081 23.2155 454.703 22.3678 454 21.8756C448.594 18.184 440.973 18.3481 434.703 20.2622C428.216 22.2311 424.757 28.1375 421.648 33.415C421.297 30.3798 420.405 27.4266 417.676 25.4304C416.486 24.5554 412.648 23.0514 415.378 27.0437C418.216 31.2275 414.432 36.9152 411.216 40.634C407.378 45.0639 400.973 47.1968 395.135 48.0171C394.973 48.0444 394.838 48.0991 394.703 48.1538C394.135 48.1265 393.54 48.0991 392.946 48.0444C381.757 46.896 374.621 38.5285 372.973 28.9305C371.703 21.4654 372.757 10.9651 380.432 6.28911C383.811 4.23826 388.216 4.51171 391.838 5.55081C392.378 5.71488 392.892 5.90629 393.378 6.12505C393.297 6.67194 393.54 7.02742 394.162 7.57431C395.838 9.07827 396.324 11.9221 395.757 14.4378C392.73 13.262 388.54 14.055 385.54 15.4769C381.513 17.3364 378.757 22.0123 380.811 25.239C380.892 25.4851 381 25.7038 381.135 25.8952C381.243 26.3054 381.567 26.6882 382 26.8797C390.73 31.0087 399.243 25.4851 401.297 17.1723C403.594 7.90245 395.297 1.91396 385.865 2.10538C376.946 2.29679 372 9.9533 370.324 17.0629C368.486 24.9929 369.811 34.208 374.621 40.9348ZM384.838 20.7544C384.811 20.7544 384.784 20.7818 384.73 20.7818C384.784 20.7271 384.811 20.6998 384.865 20.6451C384.865 20.6724 384.865 20.7271 384.838 20.7544Z" fill="#C68B43"/>
    <path d="M0 1.80474C23.1351 1.39457 46.2432 1.2305 69.3784 0.929711L138.757 0.437507C185 0.109371 324.243 0.136723 370.486 0L604.243 0.410178L673.622 0.902383C696.757 1.20317 719.865 1.36724 743 1.77741C719.865 2.18758 696.757 2.35165 673.622 2.65244L604.243 3.14465L370.486 3.55481C324.243 3.44543 185 3.47277 138.757 3.17197L69.3784 2.65243C46.2432 2.37898 23.1351 2.18757 0 1.80474Z" fill="#C68B43"/>
</svg>
