<svg width="76" height="21" viewBox="0 0 76 21" fill="none" xmlns="http://www.w3.org/2000/svg">
    <path d="M38.4716 12.1077C41.0612 9.73132 43.9648 7.66156 46.986 5.78345C50.0465 3.94366 53.2246 2.29552 56.7559 1.14566C58.5216 0.570724 60.3265 0.149106 62.2883 0.0341199C64.2109 -0.0808666 66.2512 0.0724487 68.2131 0.839026C69.194 1.18399 70.0964 1.75892 70.9204 2.41051C71.7051 3.0621 72.3329 3.71369 73.0392 4.40361C74.334 5.8601 75.4326 7.66156 75.8642 9.76965C76.2958 11.9161 75.668 14.2541 74.4125 15.9789C73.1569 17.7037 71.4305 18.9302 69.5863 19.7351C67.7422 20.5017 65.7804 20.9233 63.8185 21C61.8175 21 60.0126 20.655 58.2077 20.2718C54.6764 19.4285 51.302 18.202 48.0061 16.8605C44.7495 15.404 41.5321 13.8708 38.4716 12.1077ZM38.4716 12.1077C45.2203 14.2158 51.9691 16.3622 58.7178 17.5121C60.405 17.742 62.0921 17.9337 63.6224 17.857C65.1918 17.742 66.7221 17.3204 68.0954 16.6688C69.4686 16.0172 70.685 15.1357 71.4305 13.9858C72.2152 12.8743 72.4899 11.6094 72.2544 10.3446C72.019 9.07973 71.3128 7.77655 70.3318 6.62668C69.8218 6.09008 69.2332 5.47682 68.6839 5.01687C68.1346 4.59525 67.546 4.21196 66.879 3.90533C64.2109 2.71714 60.7581 3.0621 57.5407 3.79035C54.2448 4.59525 50.9881 5.8601 47.81 7.27827C44.6318 8.69644 41.5321 10.3446 38.4716 12.1077Z" fill="#C68B43"/>
    <path d="M20.8936 7.16329C15.4789 7.16329 15.4789 15.3657 20.8936 15.3657C26.269 15.3657 26.3082 7.16329 20.8936 7.16329Z" fill="#C68B43"/>
    <path d="M3.23703 7.96819C-1.07901 7.96819 -1.07901 14.5224 3.23703 14.5224C7.55307 14.5608 7.55307 7.96819 3.23703 7.96819Z" fill="#C68B43"/>
</svg>
