<svg width="76" height="21" viewBox="0 0 76 21" fill="none" xmlns="http://www.w3.org/2000/svg">
    <path d="M37.5284 12.1077C34.9388 9.73132 32.0352 7.66156 29.014 5.78345C25.9535 3.94366 22.7754 2.29552 19.2441 1.14566C17.4784 0.570724 15.6735 0.149106 13.7117 0.0341199C11.7891 -0.0808666 9.74878 0.0724487 7.78694 0.839026C6.80602 1.18399 5.90358 1.75892 5.07961 2.41051C4.29488 3.0621 3.66708 3.71369 2.96082 4.40361C1.66601 5.8601 0.567383 7.66156 0.13578 9.76965C-0.295822 11.9161 0.331963 14.2541 1.58754 15.9789C2.84312 17.7037 4.56953 18.9302 6.41366 19.7351C8.25778 20.5017 10.2196 20.9233 12.1815 21C14.1825 21 15.9874 20.655 17.7923 20.2718C21.3236 19.4285 24.698 18.202 27.9939 16.8605C31.2505 15.404 34.4679 13.8708 37.5284 12.1077ZM37.5284 12.1077C30.7797 14.2158 24.0309 16.3622 17.2822 17.5121C15.595 17.742 13.9079 17.9337 12.3776 17.857C10.8082 17.742 9.27794 17.3204 7.90465 16.6688C6.53136 16.0172 5.31503 15.1357 4.56953 13.9858C3.7848 12.8743 3.51014 11.6094 3.74556 10.3446C3.98098 9.07973 4.68724 7.77655 5.66816 6.62668C6.17824 6.09008 6.76678 5.47682 7.3161 5.01687C7.86542 4.59525 8.45397 4.21196 9.12099 3.90533C11.7891 2.71714 15.2419 3.0621 18.4593 3.79035C21.7552 4.59525 25.0119 5.8601 28.19 7.27827C31.3682 8.69644 34.4679 10.3446 37.5284 12.1077Z" fill="#C68B43"/>
    <path d="M55.1064 7.16329C60.5211 7.16329 60.5211 15.3657 55.1064 15.3657C49.731 15.3657 49.6918 7.16329 55.1064 7.16329Z" fill="#C68B43"/>
    <path d="M72.763 7.96819C77.079 7.96819 77.079 14.5224 72.763 14.5224C68.4469 14.5608 68.4469 7.96819 72.763 7.96819Z" fill="#C68B43"/>
</svg>
