<svg width="232" height="73" viewBox="0 0 232 73" fill="none" xmlns="http://www.w3.org/2000/svg">
    <path d="M178.692 63.7434C178.692 63.7434 179.383 63.6317 180.521 63.4752C181.704 63.2964 183.378 63.0282 185.475 62.6259C189.648 61.866 195.338 60.5026 201.63 59.4074C203.192 59.0945 204.754 58.8934 206.227 58.6699C207.722 58.4464 209.128 58.3123 210.511 58.2452C213.234 58.0664 215.733 58.0888 217.831 58.2005C218.879 58.2676 219.816 58.3346 220.664 58.4017C221.49 58.5134 222.204 58.5805 222.784 58.6699C223.922 58.8487 224.592 58.9604 224.592 58.9604C224.592 58.9604 223.922 58.7369 222.851 58.3793C222.271 58.2005 221.579 58.0441 220.754 57.8206C219.928 57.6641 218.969 57.463 217.92 57.2841C215.822 56.9489 213.278 56.6807 210.445 56.6583C209.039 56.636 207.521 56.703 205.982 56.8818C204.464 57.0606 202.88 57.2394 201.273 57.5524C194.847 58.6922 189.268 60.5026 185.23 61.7095C181.525 62.8718 178.692 63.7434 178.692 63.7434Z" fill="#C68B43"/>
    <path d="M123.04 39.6497C123.509 38.3086 124.134 37.1241 124.848 36.0959C125.562 35.0678 126.387 34.1961 127.191 33.4809C127.994 32.7434 128.886 32.1399 129.779 31.5811C130.002 31.447 130.248 31.3129 130.471 31.2012C130.582 31.1341 130.694 31.0671 130.828 31.0224L131.185 30.8436C131.43 30.7095 131.676 30.6201 131.921 30.5307L132.3 30.3742L132.702 30.2401C133.706 29.9049 134.733 29.659 135.759 29.5473C136.786 29.4132 137.79 29.3461 138.794 29.3908C140.78 29.4355 142.721 29.7484 144.551 30.2848C145.466 30.553 146.358 30.8436 147.206 31.2235C147.63 31.4023 148.054 31.6035 148.478 31.8047C148.679 31.8941 148.88 32.0058 149.081 32.1176C149.282 32.2293 149.482 32.3187 149.683 32.4528C149.884 32.5646 150.085 32.6763 150.263 32.8104C150.464 32.9222 150.643 33.0563 150.844 33.1904L151.134 33.3692L151.401 33.5703C151.58 33.7044 151.758 33.8385 151.937 33.9726C152.115 34.1067 152.294 34.2632 152.45 34.3973L152.718 34.5985L152.963 34.822C153.12 34.9784 153.298 35.1125 153.454 35.269C153.61 35.4254 153.767 35.5819 153.923 35.7383C154.079 35.8948 154.235 36.0512 154.369 36.23C154.503 36.3865 154.659 36.5653 154.793 36.7217C155.061 37.057 155.329 37.3923 155.574 37.7499C156.065 38.4427 156.467 39.2026 156.824 39.9626C156.913 40.1637 156.98 40.3425 157.069 40.5437L157.181 40.8342L157.27 41.1248C157.337 41.3259 157.404 41.5271 157.448 41.7059C157.493 41.907 157.538 42.1082 157.582 42.3094L157.649 42.5999C157.672 42.6893 157.672 42.8011 157.694 42.8905C157.716 43.0916 157.761 43.2928 157.783 43.4939C157.806 43.6951 157.806 43.8962 157.828 44.0974L157.85 44.3879C157.85 44.4773 157.85 44.5891 157.85 44.6785C157.85 44.8797 157.85 45.0808 157.85 45.2596C157.828 45.4608 157.806 45.6396 157.806 45.8407L157.783 46.1313L157.739 46.4218C157.694 46.6006 157.672 46.8018 157.627 46.9806C157.582 47.1594 157.538 47.3382 157.493 47.517C157.471 47.6064 157.449 47.6958 157.426 47.7852L157.337 48.0534C157.27 48.2322 157.225 48.411 157.158 48.5675C157.091 48.7239 157.002 48.9027 156.935 49.0592C156.891 49.1486 156.868 49.2156 156.824 49.305L156.69 49.5509C156.601 49.7073 156.511 49.8638 156.444 50.0203C156.355 50.1767 156.266 50.3108 156.154 50.4673L156.02 50.6908C155.976 50.7578 155.909 50.8249 155.864 50.8919C155.753 51.026 155.663 51.1601 155.552 51.2942C155.44 51.4283 155.329 51.5401 155.217 51.6742C154.994 51.92 154.771 52.1435 154.525 52.367C153.588 53.2387 152.517 53.8645 151.491 54.2668C150.442 54.6691 149.393 54.8703 148.456 54.8926C147.496 54.915 146.626 54.8032 145.89 54.5574C145.801 54.535 145.711 54.5127 145.622 54.4903C145.533 54.468 145.443 54.4233 145.354 54.4009C145.176 54.3339 145.02 54.2668 144.863 54.2221C144.551 54.0657 144.261 53.9539 144.015 53.7975C143.77 53.641 143.547 53.5069 143.324 53.3728C143.257 53.3058 143.167 53.2611 143.101 53.2164C141.472 52.747 140.356 51.1825 140.534 49.4168C140.735 47.4723 142.498 46.0419 144.439 46.2654C146.381 46.4665 147.809 48.2322 147.586 50.1767C147.429 51.6295 146.314 52.8141 144.908 53.1717C144.997 53.194 145.064 53.2164 145.153 53.2611C145.31 53.3058 145.466 53.3281 145.622 53.3728C145.711 53.3952 145.778 53.4175 145.867 53.4399C145.957 53.4622 146.024 53.4622 146.113 53.4846C146.782 53.6187 147.541 53.641 148.367 53.5516C149.17 53.4622 150.04 53.2387 150.888 52.8364C151.736 52.4341 152.584 51.853 153.32 51.0931C153.499 50.8919 153.7 50.7131 153.856 50.4896C153.945 50.3779 154.034 50.2885 154.101 50.1767C154.168 50.065 154.258 49.9532 154.347 49.8415C154.391 49.7744 154.436 49.7297 154.458 49.6626L154.57 49.4838C154.637 49.3721 154.704 49.238 154.793 49.1039C154.86 48.9698 154.927 48.8357 154.972 48.7239L155.061 48.5228C155.083 48.4557 155.106 48.3887 155.15 48.3216C155.195 48.1875 155.262 48.0534 155.306 47.9193C155.351 47.7852 155.396 47.6288 155.44 47.4947L155.507 47.2712C155.529 47.2041 155.529 47.1147 155.552 47.0476C155.574 46.8912 155.619 46.7571 155.641 46.6006C155.663 46.4442 155.686 46.2877 155.708 46.1536L155.753 45.7066C155.753 45.5502 155.775 45.3937 155.775 45.2373C155.775 45.0808 155.775 44.9244 155.753 44.7679C155.753 44.6785 155.753 44.6115 155.753 44.522L155.73 44.2762C155.708 44.1197 155.708 43.9633 155.686 43.8068C155.663 43.6504 155.619 43.4939 155.596 43.3375C155.574 43.2481 155.574 43.181 155.552 43.0916L155.485 42.8458C155.44 42.6893 155.396 42.5329 155.351 42.3541C155.284 42.1976 155.239 42.0412 155.172 41.8847L155.083 41.6388L154.972 41.393C154.905 41.2365 154.838 41.0801 154.771 40.9236C153.544 38.4204 151.29 36.2077 148.434 34.6879C148.255 34.5761 148.077 34.4867 147.898 34.3973C147.72 34.3079 147.541 34.2185 147.34 34.1291C146.961 33.9726 146.604 33.7938 146.202 33.6374C145.443 33.3245 144.64 33.0563 143.815 32.8328C142.186 32.3858 140.445 32.1399 138.705 32.1176C137.834 32.0952 136.964 32.1623 136.094 32.274C135.224 32.3858 134.376 32.5869 133.55 32.8775L133.238 32.9892L132.948 33.1233C132.747 33.2127 132.546 33.2798 132.345 33.3915L132.055 33.5256C131.966 33.5703 131.854 33.615 131.765 33.6821C131.564 33.7938 131.363 33.9056 131.185 34.0173C130.426 34.4867 129.667 35.0008 128.998 35.6042C128.329 36.2077 127.659 36.9005 127.079 37.7499C126.476 38.5768 125.963 39.5603 125.584 40.6331C125.205 41.7282 124.959 42.9128 124.87 44.2091C124.848 44.522 124.848 44.8573 124.848 45.1702C124.848 45.5055 124.87 45.8407 124.892 46.176C124.959 46.8465 125.048 47.517 125.205 48.2099C125.338 48.9027 125.562 49.5956 125.785 50.2885C126.03 50.9813 126.32 51.6742 126.655 52.3447C126.99 53.0152 127.391 53.6857 127.815 54.3339C128.038 54.6468 128.262 54.982 128.507 55.295C128.619 55.4514 128.753 55.6079 128.864 55.7643C128.998 55.9208 129.132 56.0772 129.243 56.2113C129.377 56.3678 129.511 56.5019 129.645 56.6583C129.779 56.8148 129.913 56.9489 130.069 57.1053C130.381 57.3959 130.672 57.6864 130.984 57.977C131.14 58.1335 131.296 58.2676 131.453 58.424C131.609 58.5581 131.765 58.7146 131.943 58.8487C132.1 58.9828 132.256 59.1392 132.434 59.2733C132.591 59.4074 132.747 59.5639 132.925 59.698C133.26 59.9662 133.595 60.2344 133.952 60.5026C134.286 60.7708 134.666 61.0167 135.023 61.2625C135.38 61.5307 135.759 61.7542 136.116 61.9777C136.295 62.0895 136.496 62.2236 136.674 62.3353C136.853 62.4471 137.053 62.5588 137.254 62.6706C137.455 62.7823 137.634 62.8941 137.834 62.9835C138.035 63.0953 138.214 63.207 138.437 63.2964C138.839 63.4976 139.24 63.6764 139.664 63.8775C140.088 64.0563 140.512 64.2128 140.936 64.3916C141.137 64.481 141.36 64.548 141.583 64.6374C141.806 64.7045 142.007 64.7939 142.23 64.8609C143.993 65.442 145.801 65.9338 147.697 66.2914C148.166 66.3808 148.634 66.4702 149.125 66.5596L149.839 66.6937L150.531 66.6713C151.022 66.7384 151.491 66.8054 151.982 66.8948C152.472 66.9619 152.963 67.0289 153.454 67.0736C153.945 67.1407 154.436 67.1854 154.927 67.2524C155.418 67.2971 155.909 67.3642 156.4 67.4089C156.891 67.4536 157.382 67.4983 157.872 67.5206L158.587 67.5877C158.832 67.61 159.077 67.61 159.323 67.6324C159.814 67.6547 160.305 67.6771 160.796 67.6994C161.287 67.7218 161.777 67.6994 162.291 67.6994C163.272 67.7218 164.277 67.6771 165.281 67.6324C165.772 67.61 166.285 67.5653 166.776 67.543C167.267 67.4983 167.78 67.4983 168.271 67.4312C169.275 67.3418 170.257 67.2524 171.261 67.1407C173.247 66.9172 175.233 66.6266 177.196 66.3137C179.16 65.9785 181.124 65.6432 183.065 65.2856C185.006 64.928 186.925 64.548 188.844 64.1681C190.741 63.7881 192.638 63.4529 194.49 63.0953C198.194 62.4024 201.809 61.6648 205.312 61.1284C207.053 60.8602 208.793 60.6591 210.467 60.5026C212.118 60.4132 213.769 60.3685 215.376 60.3685C218.567 60.4132 221.557 60.7932 224.212 61.5754C225.529 61.9554 226.778 62.4247 227.894 63.0059C229.01 63.587 229.992 64.3022 230.706 65.1738C231.063 65.5985 231.375 66.0679 231.576 66.5596C231.777 67.0513 231.911 67.543 231.978 68.0347C231.978 68.1465 232 68.2806 232 68.3923C232 68.5041 232 68.6382 232 68.7499C232 68.9734 231.978 69.2193 231.933 69.4204C231.866 69.8674 231.732 70.2697 231.576 70.6274C231.264 71.3649 230.817 71.946 230.349 72.326C229.858 72.7059 229.345 72.9071 228.921 72.9294C228.497 72.9518 228.184 72.8624 227.983 72.7953C227.894 72.7506 227.827 72.7059 227.76 72.6836C227.716 72.6612 227.693 72.6389 227.693 72.6389C227.693 72.6165 227.805 72.6612 228.006 72.7283C228.207 72.773 228.519 72.84 228.921 72.7953C229.3 72.7283 229.769 72.5495 230.193 72.1472C230.639 71.7672 231.018 71.2085 231.308 70.5156C231.442 70.158 231.531 69.778 231.598 69.3757C231.621 69.1746 231.643 68.9511 231.621 68.7499C231.621 68.6382 231.621 68.5264 231.621 68.4147C231.598 68.3029 231.598 68.1912 231.576 68.0794C231.509 67.6324 231.375 67.1854 231.174 66.7384C230.974 66.2914 230.683 65.8891 230.326 65.4868C229.635 64.7268 228.698 64.0787 227.604 63.5423C226.533 63.0059 225.306 62.5812 224.012 62.2459C221.423 61.5531 218.478 61.2625 215.354 61.2849C213.792 61.3296 212.163 61.419 210.511 61.5978C208.86 61.7766 207.164 62.0224 205.446 62.313C201.987 62.9165 198.417 63.6987 194.713 64.481C192.861 64.8609 190.987 65.2409 189.09 65.6656C187.193 66.0679 185.274 66.4925 183.333 66.8948C181.392 67.2971 179.428 67.6771 177.442 68.0571C175.456 68.3923 173.47 68.7499 171.439 68.9958C170.435 69.1299 169.409 69.2416 168.405 69.3534C167.892 69.4204 167.378 69.4428 166.887 69.4875C166.374 69.5322 165.861 69.5769 165.37 69.5992C164.344 69.6439 163.317 69.711 162.313 69.711C161.8 69.711 161.287 69.7333 160.773 69.7333C160.26 69.711 159.747 69.711 159.234 69.6886C158.988 69.6886 158.72 69.6886 158.475 69.6663L157.716 69.6216C157.203 69.5769 156.69 69.5545 156.199 69.5098C155.708 69.4651 155.195 69.4204 154.704 69.3757C154.213 69.331 153.7 69.2863 153.209 69.2193C152.718 69.1522 152.205 69.1075 151.714 69.0405C151.223 68.9734 150.732 68.9064 150.219 68.8393L148.746 68.6158C148.255 68.5264 147.764 68.4594 147.273 68.37C145.31 68.0123 143.368 67.543 141.494 66.9395C141.271 66.8725 141.025 66.7831 140.802 66.6937C140.579 66.6043 140.334 66.5372 140.11 66.4478C139.642 66.269 139.196 66.0902 138.749 65.9114C138.303 65.7103 137.857 65.5091 137.41 65.3079C137.187 65.2185 136.964 65.1068 136.763 64.9727C136.54 64.8609 136.339 64.7492 136.116 64.6374C135.915 64.5257 135.692 64.4139 135.491 64.2798C135.291 64.1457 135.09 64.034 134.867 63.8999C134.465 63.654 134.041 63.4082 133.662 63.14C133.282 62.8717 132.881 62.6035 132.501 62.3353C132.122 62.0448 131.765 61.7542 131.386 61.486C131.207 61.3519 131.029 61.1955 130.85 61.039C130.672 60.8826 130.493 60.7485 130.337 60.592C130.158 60.4356 129.98 60.3014 129.824 60.145C129.645 59.9885 129.489 59.8321 129.333 59.6756C128.998 59.3627 128.686 59.0498 128.351 58.7593C128.195 58.6028 128.038 58.424 127.86 58.2676C127.704 58.1111 127.548 57.9323 127.391 57.7758C127.235 57.597 127.101 57.4406 126.945 57.2618C126.789 57.083 126.655 56.9042 126.521 56.7254C126.231 56.3678 125.986 56.0102 125.718 55.6526C125.227 54.915 124.758 54.1774 124.379 53.3952C123.977 52.6353 123.643 51.8306 123.353 51.0484C123.085 50.2438 122.817 49.4615 122.661 48.6569C121.88 45.4831 122.125 42.3094 123.04 39.6497Z" fill="#C68B43"/>
    <path d="M53.3531 63.7434C53.3531 63.7434 52.6613 63.6317 51.5233 63.4752C50.3407 63.2964 48.6671 63.0282 46.5696 62.6259C42.3969 61.866 36.7068 60.5026 30.4142 59.4074C28.8522 59.0945 27.2902 58.8934 25.8174 58.6699C24.3224 58.4464 22.9166 58.3122 21.5331 58.2452C18.7885 58.1111 16.2893 58.1111 14.1918 58.2228C13.143 58.2675 12.2058 58.357 11.3579 58.424C10.5323 58.5358 9.81822 58.6028 9.21575 58.6699C8.10004 58.8487 7.4083 58.9828 7.4083 58.9828C7.4083 58.9828 8.07771 58.7593 9.14879 58.4017C9.72896 58.2228 10.4207 58.0664 11.2463 57.8429C12.1166 57.6641 13.0538 57.4629 14.1248 57.2841C16.2224 56.9489 18.7662 56.6807 21.6001 56.6583C23.0059 56.636 24.5232 56.703 26.0629 56.8818C27.5803 57.0606 29.1646 57.2394 30.7712 57.5523C37.1976 58.6922 42.7762 60.5026 46.815 61.7095C50.5192 62.8717 53.3531 63.7434 53.3531 63.7434Z" fill="#C68B43"/>
    <path d="M109.005 39.6496C108.536 38.3086 107.911 37.1241 107.197 36.0959C106.483 35.0678 105.657 34.1961 104.854 33.4809C104.051 32.7434 103.158 32.1399 102.266 31.5811C102.043 31.447 101.797 31.3129 101.574 31.2012C101.462 31.1341 101.351 31.0671 101.217 31.0224L100.86 30.8436C100.614 30.7095 100.369 30.6201 100.124 30.5307L99.7442 30.3742L99.3648 30.2401C98.3607 29.9049 97.3342 29.659 96.3078 29.5473C95.2813 29.4132 94.2772 29.3461 93.2731 29.3908C91.2871 29.4355 89.3458 29.7484 87.516 30.2848C86.6011 30.553 85.7086 30.8436 84.8606 31.2235C84.4367 31.4023 84.0127 31.6035 83.5887 31.8046C83.3879 31.894 83.1871 32.0058 82.9863 32.1176C82.7854 32.2293 82.5846 32.3187 82.3838 32.4528C82.1829 32.5646 81.9821 32.6763 81.8036 32.8104C81.6028 32.9222 81.4243 33.0563 81.2234 33.1904L80.9334 33.3692L80.6656 33.5703C80.4871 33.7044 80.3086 33.8385 80.1301 33.9726C79.9515 34.1067 79.773 34.2632 79.6168 34.3973L79.349 34.5985L79.1036 34.822C78.9474 34.9784 78.7689 35.1125 78.6127 35.269C78.4565 35.4254 78.3003 35.5819 78.1441 35.7383C77.9879 35.8948 77.8317 36.0512 77.6978 36.23C77.5639 36.3865 77.4077 36.5653 77.2738 36.7217C77.0061 37.057 76.7383 37.3923 76.4928 37.7499C76.0019 38.4427 75.6003 39.2026 75.2432 39.9626C75.154 40.1637 75.0871 40.3425 74.9978 40.5437L74.8862 40.8342L74.797 41.1248C74.73 41.3259 74.6631 41.5271 74.6185 41.7059C74.5738 41.907 74.5292 42.1082 74.4846 42.3093L74.4176 42.5999C74.3953 42.6893 74.3953 42.8011 74.373 42.8905C74.3507 43.0916 74.306 43.2928 74.2837 43.4939C74.2614 43.6951 74.2614 43.8962 74.2391 44.0974L74.2168 44.3879C74.2168 44.4773 74.2168 44.5891 74.2168 44.6785C74.2168 44.8796 74.2168 45.0808 74.2168 45.2596C74.2391 45.4608 74.2614 45.6396 74.2614 45.8407L74.2837 46.1313L74.3284 46.4218C74.373 46.6006 74.3953 46.8018 74.4399 46.9806C74.4846 47.1594 74.5292 47.3382 74.5738 47.517C74.5961 47.6064 74.6185 47.6958 74.6408 47.7852L74.73 48.0534C74.797 48.2322 74.8416 48.411 74.9085 48.5675C74.9755 48.7239 75.0647 48.9027 75.1317 49.0592C75.1763 49.1486 75.1986 49.2156 75.2432 49.305L75.3771 49.5509C75.4664 49.7073 75.5556 49.8638 75.6226 50.0202C75.7118 50.1767 75.8011 50.3108 75.9127 50.4673L76.0466 50.6908C76.0912 50.7578 76.1581 50.8249 76.2028 50.8919C76.3143 51.026 76.4036 51.1601 76.5152 51.2942C76.6267 51.4283 76.7383 51.5401 76.8499 51.6742C77.073 51.92 77.2961 52.1435 77.5416 52.367C78.4788 53.2387 79.5499 53.8645 80.5763 54.2668C81.6028 54.6021 82.6515 54.7809 83.611 54.8032C84.5706 54.8256 85.4408 54.7138 86.1772 54.468C86.2664 54.4456 86.3557 54.4233 86.4449 54.4009C86.5342 54.3786 86.6234 54.3339 86.7127 54.3115C86.8912 54.2445 87.0474 54.1774 87.2036 54.1327C87.516 53.9763 87.8061 53.8645 88.0515 53.7081C88.297 53.574 88.5202 53.4175 88.7433 53.3058C88.8102 53.2387 88.8995 53.194 88.9664 53.1493C90.5954 52.6799 91.7111 51.1154 91.5326 49.3497C91.3317 47.4052 89.5689 45.9748 87.6276 46.1983C85.6863 46.3995 84.2582 48.1652 84.4813 50.1096C84.6375 51.6295 85.7532 52.8364 87.159 53.1717C87.0697 53.194 87.0028 53.2164 86.9135 53.2611C86.7573 53.3058 86.6011 53.3281 86.4449 53.3728C86.3557 53.3952 86.2887 53.4175 86.1995 53.4399C86.1102 53.4622 86.0433 53.4622 85.954 53.4846C85.2846 53.6187 84.5259 53.641 83.7003 53.5516C82.897 53.4622 82.0268 53.2387 81.1788 52.8364C80.3309 52.4341 79.4829 51.853 78.7466 51.0931C78.5681 50.8919 78.3672 50.7131 78.211 50.4896C78.1218 50.3779 78.0325 50.2885 77.9656 50.1767C77.8986 50.0649 77.8094 49.9532 77.7201 49.8414C77.6755 49.7744 77.6308 49.7297 77.6085 49.6626L77.497 49.4838C77.43 49.3721 77.3631 49.238 77.2738 49.1039C77.2069 48.9698 77.14 48.8357 77.0953 48.7239L77.0061 48.5228C76.9838 48.4557 76.9614 48.3887 76.9168 48.3216C76.8722 48.1875 76.8052 48.0534 76.7606 47.9193C76.716 47.7852 76.6714 47.6287 76.6267 47.4946L76.5598 47.2711C76.5375 47.2041 76.5375 47.1147 76.5152 47.0476C76.4928 46.8912 76.4482 46.7571 76.4259 46.6006C76.4036 46.4442 76.3813 46.2877 76.359 46.1536L76.3143 45.7066C76.3143 45.5502 76.292 45.3937 76.292 45.2373C76.292 45.0808 76.292 44.9243 76.3143 44.7679C76.3143 44.6785 76.3143 44.6114 76.3143 44.522L76.3366 44.2762C76.359 44.1197 76.359 43.9633 76.3813 43.8068C76.4036 43.6504 76.4482 43.4939 76.4705 43.3375C76.4928 43.2481 76.4928 43.181 76.5152 43.0916L76.5821 42.8458C76.6267 42.6893 76.6714 42.5329 76.716 42.354C76.7829 42.1976 76.8275 42.0411 76.8945 41.8847L76.9838 41.6388L77.0953 41.393C77.1623 41.2365 77.2292 41.0801 77.2961 40.9236C78.5234 38.4204 80.7772 36.2077 83.6334 34.6878C83.8119 34.5761 83.9904 34.4867 84.1689 34.3973C84.3474 34.3079 84.5259 34.2185 84.7267 34.1291C85.1061 33.9726 85.4631 33.7938 85.8648 33.6374C86.6235 33.3245 87.4268 33.0563 88.2524 32.8328C89.8813 32.3858 91.6218 32.1399 93.3623 32.1176C94.2326 32.0952 95.1028 32.1623 95.9731 32.274C96.8433 32.3858 97.6913 32.5869 98.5169 32.8775L98.8293 32.9892L99.1194 33.1233C99.3202 33.2127 99.521 33.2798 99.7219 33.3915L100.012 33.5256C100.101 33.5703 100.213 33.615 100.302 33.6821C100.503 33.7938 100.704 33.9056 100.882 34.0173C101.641 34.4867 102.4 35.0008 103.069 35.6042C103.738 36.2077 104.408 36.9005 104.988 37.7499C105.59 38.5768 106.104 39.5602 106.483 40.6331C106.862 41.7282 107.108 42.9128 107.197 44.2091C107.219 44.522 107.219 44.8573 107.219 45.1702C107.219 45.5055 107.197 45.8407 107.175 46.176C107.108 46.8465 107.019 47.517 106.862 48.2099C106.728 48.9027 106.505 49.5956 106.282 50.2885C106.037 50.9813 105.747 51.6742 105.412 52.3447C105.077 53.0152 104.676 53.6857 104.252 54.3339C104.028 54.6468 103.805 54.982 103.56 55.2949C103.448 55.4514 103.314 55.6079 103.203 55.7643C103.069 55.9208 102.935 56.0772 102.824 56.2113C102.69 56.3678 102.556 56.5019 102.422 56.6583C102.288 56.8148 102.154 56.9489 101.998 57.1053C101.685 57.3959 101.395 57.6864 101.083 57.977C100.927 58.1335 100.771 58.2676 100.614 58.424C100.458 58.5581 100.302 58.7146 100.124 58.8487C99.9673 58.9828 99.8111 59.1392 99.6326 59.2733C99.4764 59.4074 99.3202 59.5639 99.1417 59.698C98.807 59.9662 98.4723 60.2344 98.1152 60.5026C97.7805 60.7708 97.4012 61.0167 97.0441 61.2625C96.6871 61.5307 96.3078 61.7542 95.9508 61.9777C95.7722 62.0895 95.5714 62.2236 95.3929 62.3353C95.2144 62.4471 95.0136 62.5588 94.8127 62.6706C94.6119 62.7823 94.4334 62.8941 94.2326 62.9835C94.0317 63.0952 93.8532 63.207 93.6301 63.2964C93.2284 63.4976 92.8268 63.6764 92.4028 63.8775C91.9788 64.0563 91.5549 64.2128 91.1309 64.3916C90.9301 64.481 90.7069 64.548 90.4838 64.6374C90.2607 64.7045 90.0598 64.7939 89.8367 64.8609C88.0739 65.442 86.2664 65.9338 84.3697 66.2914C83.9011 66.3808 83.4325 66.4702 82.9416 66.5596L82.2276 66.6937L81.5135 66.8054C81.0226 66.8725 80.554 66.9395 80.0631 67.0289C79.5722 67.096 79.0813 67.163 78.5904 67.2077C78.0995 67.2748 77.6085 67.3195 77.1176 67.3865C76.6267 67.4312 76.1358 67.4983 75.6449 67.543C75.154 67.5877 74.6631 67.6324 74.1722 67.6547L73.4358 67.7218C73.1904 67.7441 72.9449 67.7441 72.6994 67.7665C72.2085 67.7888 71.7176 67.8112 71.2267 67.8335C70.7358 67.8559 70.2449 67.8335 69.7317 67.8335C68.7498 67.8559 67.7457 67.8112 66.7416 67.7665C66.2507 67.7441 65.7374 67.6994 65.2465 67.6771C64.7556 67.6324 64.2424 67.6324 63.7515 67.5653C62.7473 67.4759 61.7655 67.3865 60.7614 67.2748C58.7754 67.0513 56.7895 66.7607 54.8258 66.4478C52.8622 66.1126 50.8985 65.7773 48.9572 65.4197C47.0159 65.0621 45.0968 64.6821 43.1778 64.3022C41.2811 63.9222 39.3844 63.587 37.5324 63.2293C33.8282 62.5365 30.2133 61.7989 26.71 61.2625C24.9695 60.9943 23.229 60.7931 21.5555 60.6367C19.8819 60.4802 18.2307 60.4355 16.624 60.4355C13.4331 60.4802 10.4207 60.8825 7.78763 61.6425C6.47109 62.0224 5.22151 62.4918 4.10581 63.0729C2.9901 63.654 2.00827 64.3692 1.29422 65.2409C0.937195 65.6655 0.624802 66.1349 0.423981 66.6266C0.223145 67.1183 0.0892644 67.61 0.022324 68.1017C0.022324 68.2135 4.06725e-07 68.3476 3.96955e-07 68.4593C3.87185e-07 68.5711 3.75462e-07 68.7052 3.65692e-07 68.8169C3.46153e-07 69.0405 0.0223087 69.2863 0.0669406 69.4875C0.133881 69.9345 0.267777 70.3368 0.423981 70.6944C0.736374 71.4319 1.18265 71.9907 1.67355 72.393C2.14215 72.773 2.6777 72.9741 3.07936 72.9965C3.50333 73.0188 3.81572 72.9294 4.01656 72.8624C4.12811 72.8177 4.19505 72.7953 4.23969 72.773C4.28432 72.7506 4.30663 72.7283 4.30663 72.7283C4.30663 72.7059 4.19505 72.7506 3.99423 72.8177C3.7934 72.8624 3.481 72.9294 3.10167 72.8847C2.70001 72.84 2.2314 72.6389 1.80743 72.2589C1.38347 71.879 0.981827 71.3202 0.714051 70.6273C0.58017 70.2697 0.468598 69.8898 0.423981 69.4875C0.401657 69.2863 0.379334 69.0852 0.401657 68.8617C0.401657 68.7499 0.401657 68.6381 0.401657 68.5264C0.423966 68.4146 0.423981 68.3029 0.446289 68.1911C0.51323 67.7441 0.647126 67.2971 0.847947 66.8501C1.04877 66.4031 1.33885 66.0008 1.69588 65.5985C2.38762 64.8162 3.34712 64.1681 4.4182 63.6317C5.48929 63.0952 6.71657 62.6706 8.01079 62.3353C10.5992 61.6425 13.5447 61.3519 16.6687 61.3743C18.2307 61.419 19.8596 61.5084 21.5108 61.6872C23.1621 61.866 24.8579 62.1118 26.5761 62.4024C30.0348 63.0058 33.6051 63.7881 37.3092 64.5704C39.1613 64.9503 41.0357 65.3303 42.9324 65.7549C44.8291 66.1573 46.7481 66.5819 48.6894 66.9842C50.6308 67.3865 52.5944 67.7665 54.5804 68.1464C56.5663 68.4817 58.5523 68.8393 60.5829 69.0852C61.587 69.2193 62.6134 69.331 63.6176 69.4428C64.1308 69.3981 64.644 69.4204 65.1349 69.4651C65.6482 69.5098 66.1614 69.5545 66.6523 69.5769C67.6788 69.6216 68.7052 69.6886 69.7093 69.6886C70.2226 69.6886 70.7358 69.711 71.249 69.711C71.7622 69.6886 72.2755 69.6886 72.7887 69.6663C73.0341 69.6663 73.3019 69.6663 73.5474 69.6439L74.3061 69.5992C74.8193 69.5545 75.3325 69.5322 75.8234 69.4875C76.3143 69.4428 76.8275 69.3981 77.3185 69.3534C77.8094 69.3087 78.3226 69.264 78.8135 69.1969C79.3044 69.1299 79.8176 69.0852 80.3085 69.0181C80.7995 68.9511 81.2904 68.884 81.8036 68.817L83.2763 68.5935C83.8119 68.5264 84.3028 68.4594 84.7937 68.3699C86.7573 68.0123 88.6987 67.543 90.573 66.9395C90.7962 66.8725 91.0416 66.7831 91.2648 66.6937C91.4879 66.6043 91.7334 66.5372 91.9565 66.4478C92.4251 66.269 92.8714 66.0902 93.3177 65.9114C93.764 65.7102 94.2103 65.5091 94.6565 65.3079C94.8797 65.2185 95.1028 65.1068 95.3037 64.9727C95.5268 64.8609 95.7276 64.7492 95.9508 64.6374C96.1516 64.5257 96.3747 64.4139 96.5756 64.2798C96.7764 64.1457 96.9772 64.034 97.2003 63.8999C97.602 63.654 98.026 63.4082 98.4053 63.1399C98.7847 62.8717 99.1863 62.6035 99.5656 62.3353C99.945 62.0448 100.302 61.7542 100.681 61.486C100.86 61.3519 101.038 61.1955 101.217 61.039C101.395 60.8826 101.574 60.7485 101.73 60.592C101.909 60.4355 102.087 60.3014 102.243 60.145C102.422 59.9885 102.578 59.8321 102.757 59.698C103.091 59.3851 103.404 59.0722 103.738 58.7816C103.895 58.6252 104.051 58.4464 104.229 58.2899C104.385 58.1335 104.542 57.9547 104.698 57.7982C104.854 57.6194 104.988 57.4629 105.144 57.2841C105.3 57.1053 105.434 56.9265 105.568 56.7477C105.858 56.3901 106.104 56.0325 106.371 55.6749C106.862 54.9373 107.331 54.1998 107.71 53.4175C108.112 52.6576 108.447 51.853 108.737 51.0707C109.005 50.2661 109.272 49.4838 109.428 48.6792C110.143 45.4831 109.919 42.3093 109.005 39.6496Z" fill="#C68B43"/>
    <path d="M115.922 -1.01479e-05C115.23 1.56452 114.806 2.48089 114.427 3.44195C112.129 8.96251 112.218 14.416 114.137 20.1154C115.297 23.5126 115.386 27.2899 116.368 30.9553C116.926 27.6475 117.484 24.3396 118.042 21.0317C118.287 19.646 118.287 18.1038 118.912 16.9416C121.813 11.6669 118.466 7.04037 117.551 2.16798C117.462 1.60922 116.837 1.18456 115.922 -1.01479e-05Z" fill="#C68B43"/>
    <path d="M125.785 13.2538C121.166 19.9813 118.867 27.3793 119.782 35.6936C120.117 29.5696 121.724 24.0267 125.852 19.199C126.923 17.9474 126.432 15.3547 126.677 13.3655C126.387 13.3208 126.097 13.2985 125.785 13.2538Z" fill="#C68B43"/>
    <path d="M112.642 34.1291C112.686 26.2394 110.589 19.4002 106.215 13.2985C105.925 13.3432 105.635 13.3879 105.323 13.4549C105.59 15.4218 105.189 17.9474 106.26 19.2661C109.54 23.3785 111.437 27.871 111.972 33.0339C112.017 33.3021 112.307 33.5703 112.642 34.1291Z" fill="#C68B43"/>
</svg>
