<svg width="743" height="52" viewBox="0 0 743 52" fill="none" xmlns="http://www.w3.org/2000/svg">
    <path d="M374.541 34.9098C376.487 41.9648 381.757 49.4025 390.649 49.2384C400.081 49.047 408.135 42.7031 405.46 33.5426C403.081 25.3392 394.351 20.171 385.784 24.6282C385.351 24.847 385.054 25.2298 384.973 25.64C384.838 25.8314 384.73 26.0775 384.676 26.2963C382.757 29.605 385.703 34.1442 389.811 35.8396C392.892 37.1248 397.081 37.7537 400.081 36.4411C400.757 38.9295 400.379 41.8007 398.757 43.3593C398.162 43.9336 397.919 44.2891 398.027 44.8359C397.568 45.0821 397.054 45.2735 396.514 45.4649C392.946 46.6407 388.541 47.1056 385.081 45.1914C377.216 40.8163 375.73 30.398 376.73 22.8782C378 13.2255 384.811 4.58458 395.919 2.97124C396.514 2.88921 397.081 2.83452 397.649 2.80718C397.784 2.86187 397.919 2.88921 398.108 2.91655C403.973 3.49079 410.46 5.35023 414.46 9.616C417.811 13.1982 421.811 18.7218 419.135 23.0149C416.568 27.1439 420.351 25.4486 421.487 24.5462C424.135 22.4407 424.892 19.4874 425.135 16.4248C428.46 21.593 432.162 27.3353 438.703 29.0581C445.054 30.7261 452.676 30.562 457.919 26.6791C458.622 26.1595 458.946 25.2845 458.514 24.7649C458.487 24.1634 457.676 23.7258 456.811 23.6985C449.054 23.5618 442 20.0617 435.595 16.2881C428.838 12.2958 422.378 7.81125 415.27 4.33848C409.216 1.38525 402.189 -0.857007 395.297 0.318813C388.568 1.46729 381.406 5.43227 377.838 10.8465C373.351 17.7921 372.379 27.0346 374.541 34.9098ZM388.946 30.7261C388.892 30.6714 388.838 30.6441 388.811 30.5894C388.838 30.5894 388.865 30.6167 388.919 30.6167C388.919 30.6714 388.946 30.6988 388.946 30.7261Z" fill="#C68B43"/>
    <path d="M368.379 11.0653C364.595 5.78775 357.297 2.12357 350.514 1.24854C343.595 0.346165 336.649 2.86187 330.73 6.08854C323.757 9.86211 317.514 14.5927 310.892 18.8585C304.622 22.9055 297.73 26.6791 290 27.1166C289.135 27.1713 288.324 27.6362 288.324 28.2377C287.919 28.7846 288.297 29.6323 289 30.1245C294.406 33.8161 302.027 33.652 308.297 31.7379C314.784 29.769 318.243 23.8626 321.352 18.5851C321.703 21.6203 322.595 24.5735 325.324 26.5697C326.514 27.4447 330.351 28.9487 327.622 24.9564C324.784 20.7726 328.568 15.0849 331.784 11.3661C335.622 6.93623 342.027 4.80335 347.865 3.98301C348.027 3.95566 348.162 3.90097 348.297 3.84628C348.865 3.87362 349.46 3.90097 350.054 3.95566C361.243 5.10413 368.379 13.4716 370.027 23.0696C371.297 30.5347 370.243 41.035 362.568 45.711C359.189 47.7618 354.784 47.4884 351.162 46.4493C350.622 46.2852 350.108 46.0938 349.622 45.8751C349.703 45.3282 349.46 44.9727 348.838 44.4258C347.162 42.9218 346.676 40.078 347.243 37.5623C350.27 38.7381 354.46 37.9451 357.46 36.5232C361.487 34.6637 364.243 29.9878 362.189 26.7611C362.108 26.515 362 26.2963 361.865 26.1048C361.757 25.6947 361.433 25.3119 361 25.1204C352.27 20.9914 343.757 26.515 341.703 34.8278C339.406 44.0976 347.703 50.0861 357.135 49.8947C366.054 49.7033 371 42.0468 372.676 34.9372C374.514 27.0072 373.189 17.7921 368.379 11.0653ZM358.162 31.2456C358.189 31.2456 358.216 31.2183 358.27 31.2183C358.216 31.273 358.189 31.3003 358.135 31.355C358.135 31.3277 358.135 31.273 358.162 31.2456Z" fill="#C68B43"/>
    <path d="M743 50.1953C719.865 50.6055 696.757 50.7696 673.622 51.0704L604.243 51.5626C558 51.8907 418.757 51.8634 372.514 52.0001L138.757 51.5899L69.3784 51.0977C46.2433 50.7969 23.1351 50.6329 -1.55386e-07 50.2227C23.1351 49.8125 46.2433 49.6485 69.3784 49.3477L138.757 48.8555L372.514 48.4453C418.757 48.5547 558 48.5273 604.243 48.8281L673.622 49.3476C696.757 49.6211 719.865 49.8125 743 50.1953Z" fill="#C68B43"/>
</svg>
