<svg width="172" height="67" viewBox="0 0 172 67" fill="none" xmlns="http://www.w3.org/2000/svg">
    <path d="M61.9599 42.5269C60.567 44.1726 60.3586 43.596 58.8814 44.3456C57.4043 45.0909 55.803 45.5699 54.5032 46.6833C52.587 44.6606 50.7993 43.3254 48.018 44.2924C48.506 45.3038 48.9584 46.222 49.3089 47.3132C49.6593 48.4044 49.8633 49.5045 49.575 50.6712C46.1727 53.1774 41.178 55.6526 37.1813 55.9188C33.189 56.1849 28.4959 55.2534 25.5638 54.8941C22.6317 54.5348 24.3838 53.9315 22.4942 53.0088C22.472 53.4391 22.055 53.7541 21.8732 54.1622C21.3098 53.7674 20.8219 53.5899 20.3827 53C19.2959 51.5494 19.4334 51.1059 20.9061 49.611C22.3788 48.1161 22.3655 45.6631 21.403 43.5694C19.8726 44.4521 17.8632 45.6542 16.3195 46.3329C14.7714 47.0116 14.7181 46.049 13.6225 45.428C12.6067 40.5973 15.8049 36.3345 12.7176 31.8676C8.64546 37.5987 5.4694 37.5943 0 33.1274C0.73635 38.7387 5.09679 41.2982 8.66321 45.0687C10.5351 47.0515 10.1093 48.7593 9.99396 51.097C9.87863 53.4391 8.17527 53.9803 6.28559 54.8275C7.42561 55.7635 6.73805 55.7103 8.34826 56.8547C9.95848 57.9992 14.1149 59.9509 16.6477 59.7558C18.0362 61.0732 19.327 62.018 20.9682 62.8697C43.9992 73.7686 65.4509 59.8046 69.3766 35.9929C65.4687 35.4606 63.7475 40.4199 61.9599 42.5269ZM17.2776 56.1228C16.9139 56.4244 16.4659 56.5398 16.0178 56.4599C16.3328 56.1272 16.661 55.9365 16.9139 55.7058C17.18 55.484 17.3752 55.2179 17.6813 54.8719C17.8099 55.311 17.6369 55.8123 17.2776 56.1228ZM19.7085 58.2032C19.4068 58.5847 18.981 58.8021 18.5108 58.8242C18.7681 58.425 19.0564 58.1633 19.2649 57.8661C19.4867 57.5822 19.6331 57.2628 19.8682 56.8458C20.0811 57.2761 20.0012 57.8129 19.7085 58.2032ZM21.9486 59.2989C21.749 59.7602 21.3852 60.0929 20.9239 60.2393C21.088 59.7779 21.3054 59.4364 21.4429 59.0815C21.5937 58.7355 21.6558 58.3673 21.7844 57.8927C22.0861 58.2786 22.1393 58.8331 21.9486 59.2989ZM24.4415 60.0086C24.304 60.5054 23.9802 60.9046 23.5322 61.122C23.6431 60.6296 23.8205 60.2481 23.9092 59.8622C24.0112 59.4807 24.029 59.0904 24.0955 58.5847C24.4459 58.9484 24.5702 59.5074 24.4415 60.0086ZM27.6752 60.8425C27.5333 61.3571 27.1962 61.7696 26.7348 61.9914C26.8635 61.4902 27.0498 61.0954 27.1429 60.6917C27.2538 60.2925 27.2716 59.8844 27.347 59.3698C27.693 59.7558 27.8083 60.328 27.6752 60.8425ZM30.3989 61.4946C30.2835 62.0314 29.9597 62.4749 29.5028 62.7322C29.6137 62.2132 29.7867 61.7963 29.8621 61.3704C29.9508 60.949 29.9508 60.5232 29.9996 59.9864C30.3589 60.3768 30.5053 60.9579 30.3989 61.4946ZM33.2511 62.0047C33.1668 62.5637 32.8696 63.0472 32.4172 63.3399C32.5059 62.7988 32.6567 62.3596 32.7099 61.916C32.7765 61.4724 32.7454 61.0289 32.7632 60.4744C33.1446 60.8647 33.3221 61.4458 33.2511 62.0047ZM35.5178 63.8013C35.5799 63.2423 35.6997 62.7766 35.7219 62.3152C35.7574 61.8539 35.6908 61.3926 35.6731 60.8248C36.0856 61.2063 36.303 61.7829 36.2675 62.364C36.2231 62.9407 35.957 63.4641 35.5178 63.8013ZM29.8266 59.1392C10.5529 53.5278 14.0483 48.9456 5.26091 38.8984C2.0538 35.2344 10.6194 39.5194 12.4292 34.7642C11.307 46.0579 13.6979 53.3016 25.413 56.4644C36.8841 59.5606 44.7222 57.7818 53.9177 50.1167C54.5964 50.2098 54.9025 50.5248 55.315 51.1502C48.7278 58.0657 40.0202 62.1023 29.8266 59.1392ZM38.6052 64.0097C38.6273 63.4331 38.7116 62.9451 38.6939 62.4616C38.6895 61.9781 38.583 61.5079 38.5165 60.9268C38.96 61.2906 39.2262 61.8672 39.2439 62.4616C39.2439 63.0605 39.0221 63.6238 38.6052 64.0097ZM41.8167 63.9432C41.7857 63.3488 41.8212 62.8431 41.7458 62.3463C41.6881 61.8495 41.524 61.3748 41.3998 60.7893C41.8833 61.1264 42.2115 61.6854 42.2914 62.2886C42.3623 62.8963 42.1982 63.4996 41.8167 63.9432ZM44.944 63.5218C44.8375 62.9185 44.802 62.3951 44.6557 61.8983C44.527 61.397 44.2919 60.9268 44.0834 60.3502C44.6157 60.6385 45.015 61.1619 45.1835 61.7652C45.3477 62.3774 45.2634 63.0161 44.944 63.5218ZM48.2531 62.5858C48.0624 61.987 47.9471 61.4591 47.7208 60.9756C47.5124 60.4832 47.2018 60.0352 46.9046 59.4807C47.4813 59.707 47.9604 60.1772 48.2221 60.7627C48.4838 61.3571 48.5015 62.0225 48.2531 62.5858ZM51.1098 61.3261C50.8437 60.7405 50.6529 60.2171 50.3557 59.7513C50.0718 59.2767 49.6948 58.8597 49.3222 58.3363C49.9343 58.5004 50.4799 58.913 50.8259 59.4763C51.1631 60.0397 51.2784 60.7183 51.1098 61.3261ZM53.6338 59.8445C53.3144 59.2678 53.0705 58.7533 52.72 58.3008C52.3829 57.8395 51.9571 57.4447 51.5312 56.9434C52.17 57.0676 52.7555 57.4403 53.1636 57.977C53.5628 58.5226 53.7447 59.2057 53.6338 59.8445ZM56.0159 58.2387C55.6787 57.6576 55.4082 57.1342 55.0355 56.6817C54.6762 56.216 54.2194 55.8256 53.7669 55.3244C54.4234 55.4441 55.0267 55.8079 55.4614 56.3446C55.8917 56.8858 56.1046 57.5822 56.0159 58.2387ZM58.4689 56.5753C58.1406 55.972 57.8789 55.4308 57.5063 54.9517C57.147 54.4682 56.6857 54.0513 56.2377 53.5323C56.903 53.6787 57.5063 54.069 57.941 54.6235C58.3669 55.1868 58.5709 55.901 58.4689 56.5753ZM58.6241 49.9614C58.6463 50.2187 58.7173 50.3739 58.8371 50.5425C59.0766 50.8619 59.5158 51.0482 59.9327 51.0615C60.1412 51.0704 60.3497 51.0305 60.5138 50.9506C60.6469 50.8929 60.8598 50.6756 61.0328 50.5381C61.7514 49.8993 62.2704 49.0742 62.7406 48.2093C63.1975 47.331 63.6056 46.395 64.1246 45.499C64.6303 44.6029 65.2912 43.7379 66.0941 43.1036C66.3647 42.8419 66.5821 42.4648 66.5421 42.07L66.4401 42.1321C66.3381 42.1987 66.2449 42.2741 66.1562 42.3584C65.9788 42.5269 65.8191 42.7221 65.6771 42.9306L65.615 42.8951C65.7259 42.6644 65.8501 42.4382 66.0231 42.2342C66.1074 42.1321 66.2006 42.039 66.2982 41.9503C66.347 41.9059 66.4002 41.866 66.4534 41.8261L66.5333 41.7684L66.5865 41.7329C66.5998 41.7285 66.5687 41.7418 66.6131 41.7196C66.7772 41.693 66.8127 41.8616 66.8038 41.8749C66.9147 42.0922 66.9103 42.4471 66.8216 42.6911C66.7329 42.9616 66.5998 43.2056 66.4002 43.423C65.6771 44.1283 65.1493 44.9356 64.6924 45.8183C64.2444 46.7011 63.8895 47.6503 63.4104 48.573C62.9402 49.4956 62.3281 50.3917 61.5075 51.0837C61.2768 51.2478 61.1393 51.4208 60.8155 51.5761C60.5183 51.7091 60.2077 51.7446 59.9105 51.7269C59.3206 51.6825 58.7217 51.4208 58.3491 50.9018C58.1673 50.6534 58.0608 50.303 58.0519 50.0501L58.0031 49.642L58.0076 49.2295C58.0342 48.6839 58.1628 48.1383 58.4201 47.6592C58.9125 46.6878 59.7242 45.978 60.5582 45.3881C61.3921 44.7981 62.2837 44.3101 63.1576 43.8178C63.9827 43.006 64.6791 42.0612 65.269 41.0542C65.8679 40.0384 66.3691 38.9694 66.8704 37.8959L66.9369 37.927C66.4756 39.0182 66.0143 40.1094 65.4465 41.1563C64.8831 42.2031 64.2089 43.2012 63.3838 44.0706L63.3705 44.0839L63.3483 44.0972C62.4878 44.634 61.6095 45.1352 60.811 45.7341C60.017 46.324 59.2807 47.0249 58.877 47.8854C58.6641 48.3113 58.5709 48.7815 58.5576 49.2517L58.562 49.6065L58.6241 49.9614ZM11.0896 24.1049C12.4825 22.4592 12.691 23.0358 14.1681 22.2862C15.6452 21.5409 17.2466 21.0619 18.5463 19.9485C20.4626 21.9712 22.2502 23.3064 25.0315 22.3394C24.5435 21.3236 24.0911 20.4098 23.7407 19.3186C23.3902 18.2274 23.1862 17.1273 23.4745 15.9607C26.8768 13.4544 31.8716 10.9792 35.8683 10.713C39.865 10.4469 44.5536 11.3784 47.4857 11.7333C50.4178 12.0926 48.6657 12.6959 50.5553 13.6185C50.5775 13.1882 50.9945 12.8733 51.1764 12.4652C51.7397 12.86 52.2277 13.0374 52.6668 13.6274C53.7536 15.0779 53.6161 15.5215 52.1434 17.0164C50.6707 18.5113 50.684 20.9643 51.6466 23.058C53.1769 22.1753 55.1864 20.9732 56.73 20.2945C58.2782 19.6158 58.3314 20.5784 59.427 21.1994C60.4428 26.03 57.2446 30.2929 60.3319 34.7598C64.4041 29.0331 67.5801 29.0375 73.0495 33.5044C72.3132 27.8931 67.9527 25.3336 64.3863 21.5587C62.5144 19.5759 62.9402 17.8681 63.0556 15.5304C63.1709 13.1882 64.8743 12.6471 66.7639 11.7998C65.6239 10.8639 66.3115 10.9171 64.7013 9.77265C63.091 8.6282 58.9347 6.67643 56.4018 6.8716C55.0134 5.55416 53.7225 4.60932 52.0813 3.75764C29.0415 -7.1368 7.58973 6.82281 3.66401 30.6344C7.58086 31.1756 9.30197 26.2163 11.0896 24.1049ZM55.7675 10.5134C56.1312 10.2118 56.5792 10.0965 57.0272 10.1763C56.7123 10.509 56.384 10.6997 56.1312 10.9304C55.8651 11.1522 55.6699 11.4183 55.3638 11.7643C55.2352 11.3208 55.4082 10.8195 55.7675 10.5134ZM53.3366 8.43302C53.6383 8.05154 54.0641 7.83418 54.5343 7.812C54.277 8.21123 53.9887 8.47294 53.7802 8.77015C53.5584 9.05404 53.412 9.37342 53.1769 9.79039C52.9684 9.36011 53.0438 8.81894 53.3366 8.43302ZM51.0965 7.33293C51.2961 6.8716 51.6599 6.53892 52.1212 6.39253C51.9571 6.85386 51.7397 7.19542 51.6022 7.55029C51.4514 7.89628 51.3893 8.26446 51.2606 8.7391C50.9634 8.35318 50.9058 7.7987 51.0965 7.33293ZM48.6036 6.6232C48.7411 6.12638 49.0649 5.72716 49.5129 5.5098C49.402 6.00218 49.2246 6.38366 49.1359 6.76958C49.0338 7.15106 49.0161 7.54142 48.9496 8.0471C48.6036 7.68336 48.4749 7.12888 48.6036 6.6232ZM45.3698 5.78926C45.5118 5.2747 45.8489 4.86217 46.3102 4.64037C46.1816 5.14162 45.9953 5.53641 45.9021 5.94008C45.7912 6.3393 45.7735 6.7474 45.6981 7.26196C45.3565 6.87604 45.2368 6.30825 45.3698 5.78926ZM42.6462 5.13719C42.7616 4.60045 43.0854 4.15687 43.5423 3.89959C43.4314 4.41858 43.2584 4.83555 43.183 5.26139C43.0898 5.6828 43.0942 6.10864 43.0455 6.64538C42.6861 6.25502 42.5398 5.67836 42.6462 5.13719ZM39.7984 4.6315C39.8827 4.07259 40.1799 3.58908 40.6324 3.29631C40.5436 3.83749 40.3928 4.27663 40.344 4.72022C40.2775 5.1638 40.3085 5.60739 40.2908 6.16187C39.9004 5.77151 39.723 5.19042 39.7984 4.6315ZM37.5273 2.83055C37.4652 3.38946 37.3454 3.85523 37.3232 4.31656C37.2877 4.77788 37.3543 5.23921 37.372 5.807C36.9595 5.42552 36.7421 4.84886 36.7776 4.26776C36.822 3.6911 37.0881 3.17211 37.5273 2.83055ZM43.2185 7.49706C62.4922 13.1084 58.9968 17.6906 67.7842 27.7378C70.9913 31.4018 62.4257 27.1168 60.6114 31.872C61.7337 20.5784 59.3428 13.3346 47.6277 10.1719C36.1566 7.07565 28.3184 8.85443 19.1229 16.5196C18.4443 16.4264 18.1382 16.1115 17.7256 15.486C24.3217 8.5661 33.0249 4.52948 43.2185 7.49706ZM34.4443 2.62206C34.4222 3.19872 34.3379 3.68667 34.3556 4.17017C34.3601 4.65368 34.4665 5.12388 34.5331 5.70498C34.0895 5.34124 33.8233 4.76458 33.8056 4.17017C33.8012 3.57577 34.0274 3.01242 34.4443 2.62206ZM31.2284 2.6886C31.2594 3.283 31.2239 3.78869 31.2993 4.28551C31.357 4.78232 31.5211 5.25696 31.6453 5.84249C31.1618 5.50536 30.8336 4.94645 30.7537 4.34317C30.6828 3.73546 30.8513 3.13219 31.2284 2.6886ZM28.1011 3.11001C28.2075 3.71328 28.243 4.23671 28.3894 4.73353C28.5181 5.23478 28.7532 5.70498 28.9616 6.28164C28.4293 5.99331 28.0301 5.46988 27.8616 4.8666C27.7019 4.25889 27.7817 3.61569 28.1011 3.11001ZM24.7919 4.04597C24.9827 4.64481 25.098 5.17268 25.3242 5.65618C25.5327 6.14856 25.8432 6.59658 26.1404 7.15106C25.5638 6.92483 25.0847 6.45463 24.823 5.8691C24.5657 5.27914 24.548 4.60932 24.7919 4.04597ZM21.9353 5.30575C22.2014 5.89128 22.3922 6.41028 22.6894 6.88048C22.9732 7.35511 23.3503 7.77208 23.7229 8.29551C23.1108 8.13138 22.5696 7.71885 22.2192 7.1555C21.882 6.59214 21.7711 5.9179 21.9353 5.30575ZM19.4157 6.78732C19.7351 7.36398 19.9791 7.87854 20.325 8.331C20.6622 8.79233 21.088 9.18712 21.5139 9.68837C20.8751 9.56416 20.2896 9.19155 19.8815 8.65481C19.4867 8.10921 19.3048 7.42608 19.4157 6.78732ZM17.0292 8.3931C17.3663 8.97419 17.6369 9.49763 18.0095 9.95008C18.3688 10.4158 18.8257 10.8062 19.2782 11.3075C18.6217 11.1877 18.0184 10.8239 17.5837 10.2872C17.1534 9.74603 16.9405 9.05404 17.0292 8.3931ZM14.5762 10.061C14.9044 10.6643 15.1662 11.2054 15.5388 11.6845C15.8981 12.168 16.3594 12.585 16.8074 13.104C16.142 12.9576 15.5388 12.5672 15.1041 12.0127C14.6782 11.445 14.4742 10.7308 14.5762 10.061ZM14.4254 16.6748C14.4032 16.4175 14.3322 16.2623 14.2125 16.0937C13.9729 15.7743 13.5338 15.588 13.1168 15.5747C12.9083 15.5659 12.6998 15.6058 12.5357 15.6856C12.4026 15.7433 12.1897 15.9607 12.0167 16.0982C11.2981 16.7369 10.7791 17.562 10.3089 18.427C9.85201 19.3053 9.44392 20.2412 8.92492 21.1373C8.41924 22.0333 7.7583 22.8983 6.95541 23.5326C6.68482 23.7944 6.46746 24.1714 6.50739 24.5662L6.60941 24.5041C6.71144 24.4376 6.80459 24.3621 6.89331 24.2779C7.07074 24.1093 7.23043 23.9141 7.37238 23.7056L7.43448 23.7411C7.32358 23.9718 7.19938 24.198 7.02638 24.4021C6.9421 24.5041 6.84895 24.5972 6.75136 24.686C6.70256 24.7303 6.64933 24.7702 6.5961 24.8102L6.51626 24.8678L6.47634 24.8944L6.46746 24.9033C6.45416 24.9078 6.48521 24.8944 6.44085 24.9166C6.27672 24.9432 6.24124 24.7747 6.25011 24.7658C6.13921 24.5485 6.14365 24.1936 6.23236 23.9496C6.32108 23.679 6.45416 23.4351 6.65377 23.2177C7.37681 22.5124 7.90468 21.7051 8.36157 20.8223C8.80959 19.9396 9.16446 18.9903 9.64353 18.0677C10.1137 17.145 10.7259 16.249 11.5465 15.557C11.7772 15.3929 11.9147 15.2199 12.2385 15.0646C12.5357 14.9315 12.8462 14.896 13.1434 14.9138C13.7334 14.9582 14.3322 15.2199 14.7048 15.7389C14.8867 15.9873 14.9932 16.3377 15.002 16.5861L15.0508 16.9942L15.0464 17.4067C15.0198 17.9523 14.8911 18.498 14.6339 18.977C14.1415 19.9485 13.3297 20.6582 12.4958 21.2482C11.6618 21.8382 10.7702 22.3261 9.89637 22.8185C9.07131 23.6302 8.37488 24.5751 7.78491 25.582C7.18607 26.5978 6.68482 27.6669 6.18357 28.7403L6.11703 28.7093C6.57836 27.6181 7.03969 26.5268 7.60748 25.48C8.17083 24.4331 8.84508 23.4351 9.67015 22.5656L9.68345 22.5523L9.70563 22.539C10.5662 22.0023 11.4445 21.501 12.2429 20.9022C13.037 20.3122 13.7733 19.6114 14.177 18.7508C14.3943 18.325 14.483 17.8548 14.4963 17.3846L14.4919 17.0297L14.4254 16.6748ZM66.5244 41.8394C66.5244 41.8305 66.5288 41.8216 66.5288 41.8261C66.52 41.8039 66.52 41.8172 66.5244 41.8394ZM6.52069 24.7924C6.52069 24.8013 6.51626 24.8102 6.51626 24.8057C6.52513 24.8279 6.52513 24.8146 6.52069 24.7924Z" fill="url(#paint0_linear)"/>
    <path d="M37.3453 19.6647C33.1534 19.6647 29.7378 20.9599 27.0941 23.5549C24.4503 26.1499 23.1284 29.4546 23.1284 33.4779C23.1284 37.4968 24.3838 40.7483 26.8945 43.2368C29.4051 45.7208 32.874 46.9629 37.3098 46.9629C41.5727 46.9629 45.0282 45.6853 47.672 43.1259C50.3157 40.5664 51.6376 37.3504 51.6376 33.4779C51.6376 29.4324 50.3778 26.1188 47.8538 23.5372C45.3298 20.9555 41.8255 19.6647 37.3453 19.6647ZM43.3914 42.1367C42.0163 44.1328 40.0246 45.1353 37.4163 45.1353C35.1008 45.1353 33.1712 44.0751 31.6231 41.9548C30.075 39.8345 29.3031 37.0221 29.3031 33.5134C29.3031 29.5655 30.004 26.5624 31.4057 24.5042C32.8074 22.446 34.7503 21.4168 37.2344 21.4168C39.7451 21.4168 41.7412 22.5302 43.2272 24.7615C44.7132 26.9927 45.4585 29.9825 45.4585 33.7352C45.4585 37.3371 44.7709 40.1405 43.3914 42.1367ZM63.4015 34.4981L55.6565 34.9728C55.4347 34.9728 55.3282 35.6204 55.3282 36.9112C55.3282 38.2021 55.4391 38.8497 55.6565 38.8497L63.4015 38.3751C63.6454 38.3751 63.7652 37.7541 63.7652 36.512C63.7652 36.0507 63.7297 35.5982 63.6543 35.1591C63.5833 34.7199 63.4991 34.4981 63.4015 34.4981ZM146.063 21.0886C146.063 20.6006 145.833 20.3567 145.367 20.3567C145.269 20.3567 144.453 20.37 142.918 20.3922C141.384 20.4188 139.685 20.4454 137.822 20.4853C135.959 20.5208 134.552 20.5385 133.599 20.5385C132.645 20.5385 131.217 20.5208 129.305 20.4853C127.393 20.4498 125.645 20.4188 124.062 20.3922C122.478 20.37 121.635 20.3567 121.542 20.3567C121.081 20.3567 120.846 20.6006 120.846 21.0886C120.846 21.4301 120.801 22.6544 120.717 24.7615C120.633 26.8685 120.588 28.1061 120.588 28.4698C120.588 28.6872 120.903 28.7981 121.538 28.7981C121.733 28.7981 121.844 28.7271 121.866 28.5807C122.425 26.487 123.143 24.9699 124.022 24.0295C124.9 23.0936 126.044 22.6234 127.455 22.6234C128.502 22.6234 129.589 22.6589 130.707 22.7343V42.5403C130.707 43.5384 130.427 44.1905 129.868 44.4965C129.309 44.8026 128.347 44.9534 126.98 44.9534C126.785 44.9534 126.688 45.1974 126.688 45.6853C126.688 46.1955 126.785 46.4528 126.98 46.4528C127.247 46.4528 128.209 46.4261 129.868 46.3773C131.523 46.3285 132.791 46.3019 133.67 46.3019C134.521 46.3019 135.675 46.3285 137.125 46.3773C138.576 46.4261 139.529 46.4528 139.995 46.4528C140.164 46.4528 140.253 46.16 140.253 45.5745C140.253 45.1619 140.168 44.9534 139.995 44.9534C138.678 44.9534 137.742 44.8026 137.183 44.4965C136.624 44.1905 136.345 43.5162 136.345 42.4694C136.345 39.4264 136.407 32.848 136.526 22.7343C137.524 22.6633 138.536 22.6234 139.561 22.6234C141.02 22.6234 142.169 23.0803 142.994 23.9941C143.823 24.9078 144.502 26.4382 145.039 28.5807C145.061 28.7759 145.185 28.8735 145.403 28.8735C146.01 28.8735 146.316 28.7404 146.316 28.4698C146.316 28.1061 146.272 26.8685 146.188 24.7615C146.103 22.6544 146.063 21.4301 146.063 21.0886ZM91.1344 36.654C90.7706 36.654 90.5755 36.7782 90.5489 37.0177C90.0609 39.0404 88.9963 40.8991 87.3506 42.5891C85.7049 44.2792 83.762 45.1309 81.5219 45.1309C79.7209 45.1309 78.1728 44.5409 76.882 43.3565C75.5912 42.1766 74.6508 40.695 74.0697 38.9162C73.4841 37.1375 73.1914 35.2034 73.1914 33.1053C73.1914 29.6941 73.8878 26.904 75.2762 24.7348C76.6646 22.5657 78.7007 21.4834 81.38 21.4834C86.0332 21.4834 89.054 24.309 90.4424 29.9603C90.4424 30.1776 90.673 30.2885 91.1344 30.2885C91.6711 30.2885 91.9373 30.1688 91.9373 29.9248C91.6711 28.0484 91.5336 26.1499 91.5336 24.2247C91.5336 23.2267 91.5824 22.2153 91.68 21.1906C91.68 20.9732 91.4626 20.8624 91.0235 20.8624C90.5622 20.8624 90.3315 20.9732 90.3315 21.1906C90.3315 21.4346 90.2073 21.6298 89.9678 21.7761C89.7238 21.9225 89.4576 21.9935 89.1649 21.9935C88.9697 21.9935 88.6769 21.9092 88.2866 21.7362C86.1662 20.3478 83.5846 19.6514 80.5416 19.6514C76.8377 19.6514 73.6572 20.889 71.0045 23.3597C68.3474 25.8349 67.0211 29.0554 67.0211 33.0254C67.0211 37.0221 68.2587 40.3402 70.7295 42.9839C73.2003 45.6277 76.3408 46.9496 80.1379 46.9496C81.8679 46.9496 83.3007 46.8076 84.4318 46.5282C85.563 46.2487 86.7518 45.6942 87.9938 44.8647C88.5527 44.5498 88.9919 44.3901 89.3112 44.3901C89.7016 44.3901 89.8968 44.6562 89.8968 45.193C89.8968 45.3394 90.1274 45.4148 90.5932 45.4148C91.0545 45.4148 91.2896 45.3172 91.2896 45.122C91.2896 45.0998 91.2763 44.8425 91.2542 44.3546C91.2275 43.8667 91.2187 43.4408 91.2187 43.0771C91.2187 41.2007 91.5114 39.2046 92.097 37.0842C92.0881 36.8003 91.7687 36.654 91.1344 36.654ZM169.578 22.3129C167.959 21.0354 165.563 20.3922 162.396 20.3922C162.104 20.3922 161.092 20.4188 159.362 20.4676C157.632 20.5164 156.355 20.543 155.525 20.543C154.771 20.543 153.587 20.5119 151.981 20.4498C150.375 20.3877 149.315 20.3567 148.8 20.3567C148.579 20.3567 148.472 20.6228 148.472 21.1596C148.472 21.6209 148.556 21.856 148.729 21.856C150.264 21.856 151.249 21.9846 151.688 22.2419C152.127 22.4992 152.345 22.9783 152.345 23.6836V42.2476C152.345 43.392 152.105 44.1284 151.63 44.4566C151.156 44.7849 150.246 44.949 148.907 44.949C148.712 44.949 148.614 45.193 148.614 45.6809C148.614 46.191 148.712 46.4483 148.907 46.4483C149.173 46.4483 150.087 46.4217 151.648 46.3729C153.205 46.3241 154.425 46.2975 155.303 46.2975C156.155 46.2975 157.344 46.3241 158.865 46.3729C160.387 46.4217 161.38 46.4483 161.842 46.4483C162.01 46.4483 162.099 46.1556 162.099 45.57C162.099 45.1575 162.015 44.949 161.842 44.949C160.502 44.949 159.522 44.7982 158.901 44.4921C158.28 44.186 157.969 43.5384 157.969 42.5359V34.8663C158.772 34.9417 159.664 34.9772 160.635 34.9772C164.388 34.9772 167.218 34.2764 169.13 32.8746C171.042 31.4729 172 29.6276 172 27.3387C172.009 25.2671 171.197 23.5904 169.578 22.3129ZM164.57 32.0717C163.731 32.9855 162.383 33.4424 160.533 33.4424C159.486 33.4424 158.644 33.4202 158.014 33.367C158.014 29.6143 158.098 25.8749 158.271 22.1487C158.71 22.0512 159.353 22.0024 160.209 22.0024C162.037 22.0024 163.43 22.446 164.392 23.3376C165.355 24.2292 165.834 25.693 165.834 27.7424C165.834 29.7119 165.413 31.158 164.57 32.0717ZM117.922 37.2794C117.337 37.2794 117.031 37.4613 117.009 37.8295C116.521 42.4827 113.5 44.8071 107.946 44.8071C106.678 44.8071 105.813 44.6119 105.351 44.2215C104.89 43.8312 104.655 43.2456 104.655 42.4649C104.655 42.3185 104.668 41.6798 104.69 40.5442C104.713 39.4131 104.726 38.4904 104.726 37.7851C104.726 35.9354 104.713 34.4582 104.69 33.3626C106.908 33.3626 108.416 33.6598 109.224 34.2586C110.027 34.8574 110.43 35.9575 110.43 37.5678C110.43 37.8605 110.696 38.0069 111.233 38.0069C111.77 38.0069 112.036 37.8605 112.036 37.5678C112.036 37.5456 112.005 36.9733 111.943 35.8511C111.881 34.7288 111.85 33.6819 111.85 32.7105C111.85 32.0052 111.863 31.3176 111.885 30.6478C111.907 29.978 111.938 29.4457 111.978 29.0598C112.014 28.6694 112.032 28.4388 112.032 28.3634C112.032 27.9996 111.761 27.8133 111.229 27.8133C110.692 27.8133 110.426 27.9819 110.426 28.3234C110.426 29.6631 110.018 30.5946 109.202 31.118C108.385 31.6415 106.882 31.9032 104.69 31.9032C104.837 29.0287 104.908 25.7995 104.908 22.2197C106.003 22.1221 107.148 22.0733 108.341 22.0733C110.315 22.0733 111.868 22.548 112.999 23.4972C114.13 24.4465 114.808 25.6309 115.026 27.0415C115.048 27.2367 115.248 27.3343 115.611 27.3343C116.219 27.3343 116.525 27.2234 116.525 27.006C116.525 26.6423 116.494 25.6531 116.432 24.0473C116.37 22.4415 116.339 21.4656 116.339 21.1241C116.339 20.6139 116.122 20.3567 115.682 20.3567C115.607 20.3567 114.214 20.3877 111.499 20.4498C108.785 20.5119 105.693 20.543 102.237 20.543C101.483 20.543 100.299 20.5119 98.6931 20.4498C97.0873 20.3877 96.0271 20.3567 95.5126 20.3567C95.2908 20.3567 95.1843 20.6228 95.1843 21.1596C95.1843 21.6209 95.2686 21.856 95.4416 21.856C96.9764 21.856 97.9612 21.9979 98.4003 22.2774C98.8394 22.5568 99.0568 23.1246 99.0568 23.9763V42.2476C99.0568 43.392 98.8173 44.1284 98.3426 44.4566C97.868 44.7849 96.9586 44.949 95.619 44.949C95.4238 44.949 95.3263 45.193 95.3263 45.6809C95.3263 46.191 95.4238 46.4483 95.619 46.4483C95.8852 46.4483 96.799 46.4217 98.3604 46.3729C99.9174 46.3241 101.137 46.2975 102.016 46.2975C104.256 46.2975 106.567 46.3152 108.94 46.3507C111.317 46.3862 113.283 46.4261 114.844 46.4616C116.401 46.4971 117.293 46.5149 117.51 46.5149C117.922 46.5149 118.197 46.435 118.331 46.2753C118.464 46.1156 118.53 45.7829 118.53 45.2684C118.53 44.5853 118.561 43.2279 118.623 41.1918C118.685 39.1602 118.716 37.9581 118.716 37.5899C118.725 37.3859 118.459 37.2794 117.922 37.2794Z" fill="white"/>
    <defs>
        <linearGradient id="paint0_linear" x1="50.7015" y1="66.6223" x2="24.3881" y2="2.12226" gradientUnits="userSpaceOnUse">
            <stop stop-color="#C68B43"/>
            <stop offset="0.484375" stop-color="#E3B65C"/>
            <stop offset="1" stop-color="#C68B43"/>
        </linearGradient>
    </defs>
</svg>
