<svg xmlns="http://www.w3.org/2000/svg" display="none">

    <symbol id="instagram" viewBox="0 0 22 22">
        <path d="M21.9441 6.46808C21.8925 5.29913 21.7035 4.49549 21.4326 3.79912C21.1532 3.05995 20.7234 2.39817 20.1602 1.84802C19.6099 1.28932 18.9437 0.855181 18.2129 0.580193C17.5124 0.309403 16.7128 0.12037 15.5436 0.0688308C14.3657 0.0129267 13.9918 0 11.0043 0C8.01679 0 7.64285 0.0129267 6.46931 0.0644659C5.30014 0.116005 4.49635 0.305206 3.80002 0.575828C3.06053 0.855181 2.39862 1.28495 1.84838 1.84802C1.28956 2.39817 0.855512 3.06431 0.580304 3.79493C0.309462 4.49549 0.120393 5.29477 0.0688439 6.46371C0.0129292 7.64139 0 8.01526 0 11.0022C0 13.9891 0.0129292 14.363 0.0644782 15.5363C0.116027 16.7052 0.305264 17.5089 0.576106 18.2052C0.855512 18.9444 1.28956 19.6062 1.84838 20.1563C2.39862 20.715 3.0649 21.1492 3.79565 21.4242C4.49635 21.695 5.29578 21.884 6.46512 21.9355C7.63849 21.9872 8.01259 22 11.0001 22C13.9876 22 14.3615 21.9872 15.5351 21.9355C16.7042 21.884 17.508 21.695 18.2043 21.4242C19.6831 20.8525 20.8523 19.6836 21.4241 18.2052C21.6947 17.5047 21.884 16.7052 21.9355 15.5363C21.9871 14.363 22 13.9891 22 11.0022C22 8.01526 21.9956 7.64139 21.9441 6.46808ZM19.9626 15.4503C19.9152 16.5248 19.7347 17.105 19.5842 17.4917C19.2145 18.4502 18.4537 19.2108 17.4951 19.5805C17.1082 19.7309 16.5237 19.9114 15.4533 19.9586C14.2927 20.0103 13.9446 20.023 11.0086 20.023C8.07271 20.023 7.72026 20.0103 6.56385 19.9586C5.48921 19.9114 4.90891 19.7309 4.52204 19.5805C4.045 19.4042 3.61078 19.1249 3.25833 18.7596C2.89296 18.4028 2.61355 17.9731 2.43724 17.4961C2.28679 17.1093 2.10629 16.5248 2.05911 15.4547C2.00739 14.2943 1.99463 13.9461 1.99463 11.0107C1.99463 8.07536 2.00739 7.72298 2.05911 6.56696C2.10629 5.49253 2.28679 4.91234 2.43724 4.52554C2.61355 4.04843 2.89296 3.61446 3.2627 3.26191C3.61934 2.8966 4.0492 2.61725 4.5264 2.44114C4.91327 2.29072 5.49794 2.11025 6.56821 2.06291C7.72882 2.01137 8.07707 1.99844 11.0128 1.99844C13.9532 1.99844 14.3012 2.01137 15.4576 2.06291C16.5323 2.11025 17.1126 2.29072 17.4995 2.44114C17.9765 2.61725 18.4107 2.8966 18.7632 3.26191C19.1285 3.61865 19.4079 4.04843 19.5842 4.52554C19.7347 4.91234 19.9152 5.49673 19.9626 6.56696C20.0141 7.72735 20.027 8.07536 20.027 11.0107C20.027 13.9461 20.0141 14.2899 19.9626 15.4503Z"/>
        <path d="M11 5.32632C7.86771 5.32632 5.32632 7.86754 5.32632 11C5.32632 14.1325 7.86771 16.6737 11 16.6737C14.1325 16.6737 16.6737 14.1325 16.6737 11C16.6737 7.86754 14.1325 5.32632 11 5.32632ZM11 14.6804C8.96793 14.6804 7.31962 13.0322 7.31962 11C7.31962 8.96776 8.96793 7.31962 11 7.31962C13.0322 7.31962 14.6804 8.96776 14.6804 11C14.6804 13.0322 13.0322 14.6804 11 14.6804Z"/>
        <path d="M18.0632 4.97895C18.0632 5.68232 17.4929 6.25263 16.7894 6.25263C16.0861 6.25263 15.5158 5.68232 15.5158 4.97895C15.5158 4.27541 16.0861 3.70526 16.7894 3.70526C17.4929 3.70526 18.0632 4.27541 18.0632 4.97895Z"/>
    </symbol>

    <symbol id="vk" viewBox="0 0 33 20">
        <path d="M27.3841 11.4686C26.8506 10.7686 27.0032 10.4571 27.3841 9.83143C27.391 9.82429 31.7952 3.50143 32.249 1.35714L32.2517 1.35571C32.4773 0.574286 32.2517 0 31.1613 0H27.5532C26.6347 0 26.2112 0.492857 25.9843 1.04429C25.9843 1.04429 24.1472 5.61286 21.5484 8.57429C20.7096 9.43 20.3218 9.70429 19.8639 9.70429C19.6384 9.70429 19.2878 9.43 19.2878 8.64857V1.35571C19.2878 0.418571 19.0307 0 18.2703 0H12.5968C12.0207 0 11.6783 0.437143 11.6783 0.844286C11.6783 1.73286 12.9777 1.93714 13.1125 4.43714V9.86143C13.1125 11.05 12.9048 11.2686 12.4442 11.2686C11.2176 11.2686 8.24066 6.68143 6.47647 1.43143C6.12034 0.412857 5.77245 0.00142847 4.84704 0.00142847H1.23754C0.207632 0.00142847 0 0.494286 0 1.04571C0 2.02 1.22654 6.86429 5.7037 13.2643C8.68755 17.6329 12.8897 20 16.7123 20C19.01 20 19.2905 19.4743 19.2905 18.57C19.2905 14.3957 19.0829 14.0014 20.2338 14.0014C20.7673 14.0014 21.6859 14.2757 23.8309 16.3829C26.2827 18.8814 26.6856 20 28.0578 20H31.666C32.6945 20 33.2157 19.4743 32.9159 18.4371C32.2297 16.2557 27.5931 11.7686 27.3841 11.4686Z"/>
    </symbol>

    <symbol id="fb" viewBox="0 0 20 20">
        <path d="M17.0703 0H2.92969C1.31439 0 0 1.31439 0 2.92969V17.0703C0 18.6856 1.31439 20 2.92969 20H8.82812V12.9297H6.48438V9.41406H8.82812V7.03125C8.82812 5.09262 10.4051 3.51562 12.3438 3.51562H15.8984V7.03125H12.3438V9.41406H15.8984L15.3125 12.9297H12.3438V20H17.0703C18.6856 20 20 18.6856 20 17.0703V2.92969C20 1.31439 18.6856 0 17.0703 0Z"/>
    </symbol>

</svg>